<svg width="192" height="192" viewBox="0 0 192 192" fill="none" xmlns="http://www.w3.org/2000/svg">
<path d="M172.892 111.976L171.84 111.7L171.148 114.33L163.571 112.338L163.272 113.478L170.849 115.47L170.157 118.1L171.209 118.376L172.892 111.976Z" fill="#060602"/>
<path d="M159.956 124.945L163.962 124.039C163.46 125.555 164.446 126.762 165.642 127.258C166.922 127.788 168.502 127.629 169.245 125.835L170.529 122.736L162.285 119.322L161.834 120.411L164.945 121.699L164.504 122.764L160.497 123.641L159.956 124.945ZM168.23 125.442C167.883 126.28 167.014 126.551 166.093 126.169C165.16 125.783 164.724 125.041 165.225 123.833L165.938 122.11L169.073 123.409L168.23 125.442Z" fill="#060602"/>
<path d="M156.029 130.574C155.127 132.087 155.366 133.963 157.113 135.003L162.164 138.012L162.767 137L157.716 133.991C156.504 133.269 156.427 132.107 156.997 131.151C157.567 130.194 158.624 129.709 159.837 130.431L164.888 133.44L165.491 132.427L160.44 129.419C158.693 128.378 156.93 129.061 156.029 130.574Z" fill="#060602"/>
<path d="M150.709 138.575C149.545 140.015 149.834 141.697 150.911 142.568C151.898 143.366 153.072 143.15 154.337 142.224L155.311 141.513C156.302 140.782 156.85 141.093 157.092 141.288C157.777 141.842 157.719 142.861 157.157 143.556C156.555 144.301 155.617 144.492 154.922 143.93L154.19 144.836C155.428 145.838 156.993 145.488 157.979 144.27C158.956 143.061 159.021 141.333 157.823 140.364C157.259 139.908 156.206 139.439 154.665 140.624L153.718 141.341C153.095 141.803 152.296 142.173 151.622 141.628C151.008 141.131 150.831 140.155 151.555 139.259C152.304 138.333 153.401 138.254 154.039 138.72L154.772 137.814C153.687 136.953 151.89 137.115 150.709 138.575Z" fill="#060602"/>
<path d="M153.065 150.404L152.31 149.621L150.353 151.509L144.915 145.869L144.066 146.687L149.505 152.327L147.547 154.214L148.302 154.997L153.065 150.404Z" fill="#060602"/>
<path d="M141.386 153.491L138.519 155.625L139.176 156.508L142.043 154.374L143.775 156.701L140.492 159.144L141.142 160.017L145.359 156.878L140.032 149.72L135.711 152.937L136.36 153.809L139.747 151.289L141.386 153.491Z" fill="#060602"/>
<path d="M137.395 163.639L133.172 155.779L130.126 157.416C127.89 158.617 127.486 161.01 128.681 163.234C129.882 165.47 132.113 166.477 134.349 165.275L137.395 163.639ZM132.649 157.295L135.842 163.238L133.834 164.317C132.18 165.206 130.62 164.354 129.719 162.677C128.818 161 128.987 159.263 130.641 158.374L132.649 157.295Z" fill="#060602"/>
<path d="M115.927 167.526C115.203 168.065 115.141 168.902 115.35 169.65C115.726 170.997 116.861 171.595 118.282 171.198L121.513 170.296L119.114 161.702L115.609 162.681C114.038 163.12 113.433 164.566 113.778 165.8C114.039 166.736 114.854 167.584 115.927 167.526ZM116.453 169.221C116.248 168.485 116.485 167.841 117.258 167.625L119.379 167.033L120.085 169.565L118.002 170.147C117.217 170.366 116.659 169.957 116.453 169.221ZM118.271 163.067L119.1 166.036L116.905 166.648C115.857 166.941 115.156 166.357 114.94 165.583C114.718 164.785 115.078 163.958 116.139 163.662L118.271 163.067Z" fill="#060602"/>
<path d="M106.377 169.839L109.421 173.121L110.808 172.938L106.817 168.618L106.279 164.536L105.11 164.69L105.648 168.772L102.874 173.984L104.273 173.799L106.377 169.839Z" fill="#060602"/>
<path d="M84.956 173.892L85.168 172.825L82.5007 172.296L84.0273 164.611L82.8715 164.382L81.3449 172.066L78.6776 171.536L78.4657 172.603L84.956 173.892Z" fill="#060602"/>
<path d="M71.338 161.155L72.4826 165.099C70.9391 164.689 69.7932 165.745 69.3703 166.969C68.9178 168.279 69.171 169.846 71.0069 170.48L74.177 171.575L77.0906 163.142L75.9768 162.757L74.8773 165.94L73.788 165.563L72.6721 161.616L71.338 161.155ZM71.3377 169.444C70.4809 169.148 70.1585 168.296 70.4841 167.354C70.8139 166.399 71.5276 165.92 72.7638 166.347L74.5263 166.956L73.4184 170.162L71.3377 169.444Z" fill="#060602"/>
<path d="M64.7761 157.964C63.2126 157.153 61.3541 157.503 60.4185 159.308L57.7129 164.527L58.7591 165.069L61.4647 159.85C62.1143 158.597 63.269 158.451 64.2577 158.964C65.2464 159.476 65.7932 160.504 65.1437 161.757L62.4381 166.976L63.4843 167.519L66.1899 162.299C67.1255 160.494 66.3397 158.774 64.7761 157.964Z" fill="#060602"/>
<path d="M56.7804 153.517C55.2711 152.444 53.6101 152.836 52.8073 153.966C52.0721 155 52.3608 156.158 53.3632 157.363L54.133 158.292C54.924 159.235 54.6484 159.802 54.4683 160.055C53.9581 160.773 52.9375 160.779 52.2092 160.261C51.4282 159.706 51.1792 158.782 51.6968 158.054L50.7469 157.379C49.8241 158.677 50.2703 160.217 51.5474 161.125C52.814 162.025 54.5435 161.984 55.4363 160.728C55.8564 160.137 56.2589 159.056 54.9804 157.592L54.2061 156.692C53.7065 156.098 53.2877 155.324 53.7903 154.617C54.248 153.973 55.2108 153.736 56.1502 154.403C57.1213 155.094 57.2683 156.183 56.8423 156.85L57.7923 157.525C58.5845 156.388 58.3109 154.605 56.7804 153.517Z" fill="#060602"/>
<path d="M45.5408 156.032L46.2786 155.233L44.2804 153.389L49.5944 147.632L48.7285 146.833L43.4145 152.589L41.4163 150.745L40.6785 151.544L45.5408 156.032Z" fill="#060602"/>
<path d="M41.1547 145.179L38.8473 142.45L38.0067 143.16L40.3141 145.89L38.0989 147.763L35.4571 144.637L34.6264 145.34L38.0206 149.355L44.8343 143.595L41.3565 139.481L40.5258 140.183L43.2512 143.407L41.1547 145.179Z" fill="#060602"/>
<path d="M31.2599 141.375L38.8398 136.669L37.016 133.732C35.6772 131.575 33.2635 131.321 31.1182 132.653C28.962 133.992 28.0973 136.282 29.4361 138.438L31.2599 141.375ZM37.2941 136.242L31.5624 139.8L30.3602 137.864C29.3698 136.269 30.1226 134.658 31.7398 133.654C33.357 132.65 35.1015 132.71 36.0919 134.305L37.2941 136.242Z" fill="#060602"/>
<path d="M26.04 119.73C25.4592 119.04 24.6195 119.028 23.8852 119.282C22.5633 119.739 22.0355 120.908 22.5175 122.303L23.6128 125.473L32.0458 122.559L30.8575 119.12C30.3247 117.578 28.8448 117.062 27.6331 117.48C26.7151 117.798 25.9178 118.662 26.04 119.73ZM24.3801 120.358C25.1023 120.108 25.7596 120.306 26.0218 121.065L26.7407 123.146L24.2561 124.004L23.5499 121.96C23.2835 121.189 23.658 120.607 24.3801 120.358ZM30.6329 121.801L27.7199 122.807L26.9756 120.653C26.6204 119.625 27.1611 118.89 27.92 118.628C28.7033 118.357 29.5503 118.668 29.9098 119.708L30.6329 121.801Z" fill="#060602"/>
<path d="M22.8703 111.13L19.7808 114.37L20.0481 115.743L24.1154 111.495L28.1574 110.708L27.9322 109.551L23.8902 110.338L18.5186 107.888L18.7884 109.273L22.8703 111.13Z" fill="#060602"/>
<path d="M18.1074 83.9501L19.1754 84.1563L19.691 81.4863L27.3833 82.9717L27.6067 81.8147L19.9144 80.3292L20.43 77.6592L19.362 77.4529L18.1074 83.9501Z" fill="#060602"/>
<path d="M30.8144 71.2397L26.8802 72.417C27.2773 70.8702 26.2115 69.7331 24.984 69.3204C23.6707 68.8788 22.1057 69.145 21.4867 70.9861L20.4178 74.1652L28.8748 77.0086L29.2503 75.8916L26.059 74.8187L26.4263 73.7262L30.3646 72.5776L30.8144 71.2397ZM22.526 71.3082C22.8148 70.4491 23.6634 70.1196 24.6085 70.4373C25.5659 70.7592 26.0513 71.4689 25.6345 72.7086L25.0402 74.4761L21.8244 73.3949L22.526 71.3082Z" fill="#060602"/>
<path d="M34.039 63.7375C34.844 62.1711 34.4881 60.3138 32.6798 59.3846L27.4509 56.6973L26.9122 57.7454L32.1412 60.4327C33.3966 61.0778 33.546 62.232 33.037 63.2225C32.5279 64.213 31.5025 64.7634 30.2471 64.1183L25.0181 61.431L24.4795 62.4791L29.7085 65.1664C31.5167 66.0956 33.234 65.3038 34.039 63.7375Z" fill="#060602"/>
<path d="M38.4906 55.7521C39.5594 54.2399 39.1627 52.58 38.0312 51.7803C36.9948 51.0479 35.8371 51.3397 34.6349 52.3453L33.7084 53.1177C32.767 53.9112 32.1996 53.637 31.9458 53.4577C31.2267 52.9495 31.2186 51.9289 31.7343 51.1992C32.2874 50.4166 33.2104 50.1651 33.9401 50.6808L34.6127 49.7291C33.312 48.8098 31.7727 49.2601 30.8684 50.5397C29.9715 51.8087 30.0178 53.5381 31.2763 54.4275C31.8685 54.846 32.9498 55.2455 34.4111 53.9632L35.309 53.1864C35.9011 52.6852 36.6742 52.2643 37.3828 52.7651C38.0278 53.221 38.2675 54.1832 37.6023 55.1243C36.9147 56.0972 35.8256 56.2472 35.1581 55.823L34.4854 56.7748C35.6244 57.5639 37.4069 57.2855 38.4906 55.7521Z" fill="#060602"/>
<path d="M34.9708 45.535L35.7745 46.2681L37.6071 44.259L43.3952 49.5388L44.1893 48.6682L38.4013 43.3884L40.234 41.3793L39.4303 40.6463L34.9708 45.535Z" fill="#060602"/>
<path d="M46.8278 41.1415L49.5521 38.828L48.8396 37.9891L46.1153 40.3026L44.2377 38.0916L47.3568 35.4428L46.6527 34.6137L42.6452 38.0169L48.4206 44.8176L52.5267 41.3306L51.8226 40.5015L48.6049 43.2341L46.8278 41.1415Z" fill="#060602"/>
<path d="M50.6254 31.2555L55.3523 38.8227L58.2847 36.9909C60.4373 35.6462 60.685 33.2318 59.3472 31.0902C58.0025 28.9376 55.7104 28.0791 53.5578 29.4238L50.6254 31.2555ZM55.7754 37.2758L52.2011 31.5538L54.1341 30.3463C55.7266 29.3515 57.3392 30.1 58.3477 31.7145C59.3562 33.329 59.3009 35.0736 57.7084 36.0684L55.7754 37.2758Z" fill="#060602"/>
<path d="M72.2828 25.0102C72.9702 24.4266 72.9781 23.5869 72.7214 22.8535C72.2593 21.5336 71.0883 21.0105 69.695 21.4983L66.5295 22.6065L69.4776 31.0276L72.912 29.8252C74.452 29.2861 74.9621 27.8041 74.5385 26.5941C74.2176 25.6774 73.3498 24.8836 72.2828 25.0102ZM71.6477 23.3529C71.9001 24.074 71.7052 24.7322 70.9475 24.9975L68.8697 25.7249L68.0011 23.2438L70.0422 22.5292C70.8122 22.2597 71.3952 22.6318 71.6477 23.3529ZM70.2304 29.6115L69.212 26.7027L71.3631 25.9496C72.3898 25.5902 73.1268 26.1279 73.3921 26.8857C73.6659 27.6679 73.3592 28.5162 72.3203 28.8799L70.2304 29.6115Z" fill="#060602"/>
<path d="M80.8891 21.8457L77.6335 18.7726L76.2621 19.0468L80.5309 23.0926L81.3383 27.1306L82.4938 26.8996L81.6865 22.8616L84.1096 17.4778L82.7255 17.7545L80.8891 21.8457Z" fill="#060602"/>
<path d="M103.114 17.1027L102.969 18.1808L105.665 18.5416L104.625 26.3068L105.793 26.4631L106.833 18.6979L109.528 19.0587L109.672 17.9806L103.114 17.1027Z" fill="#060602"/>
<path d="M116.472 28.5638L115.057 24.7085C116.626 25.0108 117.696 23.8777 118.033 22.6275C118.394 21.2897 118.033 19.7438 116.158 19.2379L112.92 18.3644L110.596 26.9787L111.733 27.2856L112.61 24.0349L113.723 24.3351L115.109 28.1962L116.472 28.5638ZM115.899 20.2949C116.775 20.531 117.155 21.3579 116.895 22.3206C116.632 23.2958 115.953 23.8235 114.691 23.4829L112.89 22.9972L113.774 19.7215L115.899 20.2949Z" fill="#060602"/>
<path d="M122.965 31.0635C124.58 31.7674 126.411 31.2942 127.223 29.4305L129.573 24.0414L128.493 23.5704L126.143 28.9596C125.579 30.2535 124.437 30.4759 123.416 30.0308C122.395 29.5857 121.78 28.5974 122.344 27.3035L124.694 21.9144L123.614 21.4434L121.264 26.8326C120.452 28.6962 121.351 30.3597 122.965 31.0635Z" fill="#060602"/>
<path d="M131.91 35.6422C133.486 36.6143 135.118 36.1145 135.845 34.9351C136.511 33.855 136.147 32.7178 135.069 31.5809L134.24 30.7045C133.389 29.8147 133.627 29.2312 133.79 28.9667C134.252 28.2172 135.27 28.1452 136.031 28.6143C136.847 29.1173 137.155 30.0228 136.686 30.7833L137.678 31.3951C138.514 30.0394 137.969 28.5313 136.635 27.7088C135.312 26.8931 133.589 27.0475 132.78 28.3591C132.4 28.9764 132.069 30.0806 133.44 31.4588L134.271 32.3063C134.809 32.8658 135.277 33.6111 134.822 34.3496C134.407 35.022 133.462 35.3213 132.481 34.7164C131.467 34.091 131.249 33.0134 131.63 32.3207L130.638 31.7089C129.922 32.895 130.311 34.6566 131.91 35.6422Z" fill="#060602"/>
<path d="M142.522 32.0004L141.838 32.8454L143.95 34.5578L139.017 40.6439L139.932 41.386L144.866 35.2998L146.978 37.0122L147.663 36.1672L142.522 32.0004Z" fill="#060602"/>
<path d="M147.224 43.0106L149.701 45.5869L150.495 44.8239L148.018 42.2477L150.108 40.2372L152.945 43.1868L153.729 42.4328L150.085 38.6431L143.653 44.8273L147.387 48.7104L148.171 47.9564L145.245 44.9135L147.224 43.0106Z" fill="#060602"/>
<path d="M157.846 45.6381L150.586 50.825L152.596 53.6382C154.072 55.7033 156.497 55.8008 158.551 54.3329C160.617 52.8573 161.331 50.5164 159.856 48.4513L157.846 45.6381ZM152.156 51.1514L157.646 47.2293L158.971 49.0837C160.062 50.6114 159.415 52.2674 157.866 53.374C156.318 54.4807 154.573 54.5336 153.481 53.0058L152.156 51.1514Z" fill="#060602"/>
<path d="M164.457 66.4586C165.083 67.1078 165.921 67.0625 166.637 66.7599C167.925 66.2152 168.373 65.0135 167.798 63.6538L166.491 60.5648L158.274 64.0397L159.691 67.3912C160.327 68.894 161.838 69.3094 163.019 68.8101C163.913 68.4318 164.65 67.5155 164.457 66.4586ZM166.07 65.72C165.367 66.0175 164.697 65.8647 164.385 65.1252L163.527 63.0976L165.949 62.0738L166.791 64.0656C167.109 64.817 166.774 65.4224 166.07 65.72ZM159.735 64.7014L162.573 63.5011L163.461 65.6002C163.885 66.6021 163.395 67.3717 162.655 67.6844C161.892 68.0072 161.026 67.7547 160.597 66.7409L159.735 64.7014Z" fill="#060602"/>
<path d="M168.457 75.1129L171.328 71.6773L170.971 70.325L167.191 74.8308L163.209 75.8811L163.51 77.0205L167.492 75.9703L173.012 78.0631L172.652 76.6983L168.457 75.1129Z" fill="#060602"/>
</svg>
