<svg width="192" height="192" viewBox="0 0 192 192" fill="none" xmlns="http://www.w3.org/2000/svg">
<rect width="192" height="192" rx="96" fill="#BFFF39"/>
<path d="M152 96C152 126.928 126.928 152 96 152C65.0721 152 40 126.928 40 96C40 65.0721 65.0721 40 96 40C126.928 40 152 65.0721 152 96Z" fill="white"/>
<path d="M70.3024 97V73.32H60.3824V78.408H64.2544V97H70.3024ZM93.4756 78.408V73.32H80.3876L78.3396 86.728L83.2356 87.944C83.8436 86.568 84.8356 85.896 86.3396 85.896C88.1316 85.896 89.5716 87.176 89.5716 89C89.5716 90.76 88.0996 92.136 86.3716 92.136C85.2196 92.136 84.2276 91.592 83.5876 90.664H77.5076C78.3396 94.92 81.9556 97.48 86.5316 97.48C92.1636 97.48 95.6196 93.32 95.6196 88.904C95.6196 84.904 92.7396 80.936 87.7796 80.936C86.5956 80.936 85.5716 81.064 84.5156 81.64L85.0276 78.408H93.4756ZM115.017 81.576C115.017 76.328 110.985 72.872 106.217 72.872C101.801 72.872 97.3529 76.008 97.3529 81.64V88.584C97.3529 94.024 101.545 97.448 106.281 97.448C110.985 97.448 115.017 94.056 115.017 88.584V81.576ZM108.969 88.712C108.969 90.792 108.105 92.136 106.185 92.136C104.393 92.136 103.401 90.76 103.401 88.712V81.608C103.401 79.592 104.393 78.184 106.185 78.184C108.105 78.184 108.969 79.528 108.969 81.608V88.712ZM128.078 97V91.464H133.582V86.344H128.078V80.808H122.958V86.344H117.454V91.464H122.958V97H128.078Z" fill="#060602"/>
<path d="M64.1001 111.495C65.0601 111.105 65.4651 110.145 65.4651 109.215C65.4651 107.61 64.3851 106.665 62.7201 106.665H58.9701V117H63.0951C64.9251 117 66.0201 115.62 66.0201 114.15C66.0201 113.07 65.4201 111.84 64.1001 111.495ZM64.4751 109.29C64.4751 110.31 63.9201 111.105 62.9001 111.105H59.9601V107.595H62.7051C63.8001 107.595 64.4751 108.24 64.4751 109.29ZM59.9601 116.07V111.975H62.8851C64.2351 111.975 65.0301 112.965 65.0301 114.075C65.0301 115.14 64.2651 116.07 62.9301 116.07H59.9601ZM72.9794 117.18C74.9744 117.18 76.6694 115.8 76.6694 113.535V106.665H75.6794V113.535C75.6794 115.275 74.4494 116.22 72.9794 116.22C71.5094 116.22 70.2794 115.275 70.2794 113.535V106.665H69.2894V113.535C69.2894 115.8 70.9844 117.18 72.9794 117.18ZM83.4004 117.18C85.6504 117.18 86.8504 115.605 86.8504 114.15C86.8504 112.65 85.7254 111.795 84.0904 111.39L82.6804 111.03C81.1504 110.655 81.0004 109.845 81.0004 109.365C81.0004 108.21 82.0954 107.415 83.2654 107.415C84.4954 107.415 85.4554 108.15 85.5154 109.29H86.4904C86.4304 107.565 85.0504 106.485 83.2954 106.485C81.5854 106.485 80.0104 107.655 80.0104 109.365C80.0104 110.19 80.3104 111.435 82.4554 111.945L83.8504 112.275C84.8704 112.53 85.8604 113.07 85.8604 114.195C85.8604 115.17 85.0504 116.25 83.4004 116.25C81.9454 116.25 81.0004 115.275 80.9104 114.255H79.9354C80.0104 115.755 81.3604 117.18 83.4004 117.18ZM91.1472 117V106.665H90.1572V117H91.1472ZM101.551 115.26L96.2706 106.665H95.2356V117H96.2256V108.39L101.521 117H102.541V106.665H101.551V115.26ZM107.617 112.395H111.907V111.465H107.617V107.595H112.537V106.665H106.642V117H112.702V116.07H107.617V112.395ZM118.816 117.18C121.066 117.18 122.266 115.605 122.266 114.15C122.266 112.65 121.141 111.795 119.506 111.39L118.096 111.03C116.566 110.655 116.416 109.845 116.416 109.365C116.416 108.21 117.511 107.415 118.681 107.415C119.911 107.415 120.871 108.15 120.931 109.29H121.906C121.846 107.565 120.466 106.485 118.711 106.485C117.001 106.485 115.426 107.655 115.426 109.365C115.426 110.19 115.726 111.435 117.871 111.945L119.266 112.275C120.286 112.53 121.276 113.07 121.276 114.195C121.276 115.17 120.466 116.25 118.816 116.25C117.361 116.25 116.416 115.275 116.326 114.255H115.351C115.426 115.755 116.776 117.18 118.816 117.18ZM128.333 117.18C130.583 117.18 131.783 115.605 131.783 114.15C131.783 112.65 130.658 111.795 129.023 111.39L127.613 111.03C126.083 110.655 125.933 109.845 125.933 109.365C125.933 108.21 127.028 107.415 128.198 107.415C129.428 107.415 130.388 108.15 130.448 109.29H131.423C131.363 107.565 129.983 106.485 128.228 106.485C126.518 106.485 124.943 107.655 124.943 109.365C124.943 110.19 125.243 111.435 127.388 111.945L128.783 112.275C129.803 112.53 130.793 113.07 130.793 114.195C130.793 115.17 129.983 116.25 128.333 116.25C126.878 116.25 125.933 115.275 125.843 114.255H124.868C124.943 115.755 126.293 117.18 128.333 117.18Z" fill="#060602"/>
</svg>
