<svg width="1007" height="46" viewBox="0 0 1007 46" fill="none" xmlns="http://www.w3.org/2000/svg">
<g clip-path="url(#clip0_3996_11529)">
<path d="M12.6713 9.61194C14.5613 9.58861 16.288 9.91527 17.8513 10.5919C19.4146 11.2453 20.7563 12.1786 21.8763 13.3919C22.9963 14.5819 23.8596 16.0053 24.4663 17.6619C25.0963 19.2953 25.3996 21.0686 25.3763 22.9819C25.3996 24.8953 25.0963 26.6803 24.4663 28.3369C23.8596 29.9703 22.9846 31.3936 21.8413 32.6069C20.7213 33.8203 19.3796 34.7653 17.8163 35.4419C16.253 36.1186 14.5263 36.4336 12.6363 36.3869C10.7696 36.4103 9.05463 36.0953 7.4913 35.4419C5.9513 34.7653 4.6213 33.8319 3.5013 32.6419C2.3813 31.4286 1.5063 30.0053 0.876296 28.3719C0.26963 26.7153 -0.022037 24.9303 0.0012963 23.0169C-0.022037 21.1036 0.26963 19.3303 0.876296 17.6969C1.5063 16.0403 2.3813 14.6053 3.5013 13.3919C4.6213 12.1786 5.96296 11.2336 7.5263 10.5569C9.08963 9.88027 10.8046 9.56527 12.6713 9.61194ZM12.7063 30.8569C14.8063 30.8569 16.4396 30.1686 17.6063 28.7919C18.7963 27.3919 19.3913 25.4553 19.3913 22.9819C19.3913 20.5086 18.7963 18.5836 17.6063 17.2069C16.4396 15.8069 14.8063 15.1069 12.7063 15.1069C10.583 15.1069 8.9263 15.8069 7.7363 17.2069C6.56963 18.5836 5.9863 20.5086 5.9863 22.9819C5.9863 25.4553 6.56963 27.3919 7.7363 28.7919C8.9263 30.1686 10.583 30.8569 12.7063 30.8569Z" fill="#060602"/>
<path d="M51.2451 10.0669V35.9669H45.6451L34.7251 19.0619V35.9669H29.1251V10.0669H34.7251L45.6451 27.0069V10.0669H51.2451Z" fill="#060602"/>
<path d="M75.8572 18.7119C75.8572 19.9953 75.6589 21.1736 75.2622 22.2469C74.8656 23.3203 74.2822 24.2419 73.5122 25.0119C72.7656 25.7586 71.8439 26.3419 70.7472 26.7619C69.6506 27.1819 68.4022 27.3919 67.0022 27.3919H62.2072V35.9669H56.5372V10.0669H62.2072H67.0722C68.4489 10.0669 69.6739 10.2653 70.7472 10.6619C71.8439 11.0586 72.7656 11.6419 73.5122 12.4119C74.2589 13.1586 74.8306 14.0686 75.2272 15.1419C75.6472 16.1919 75.8572 17.3819 75.8572 18.7119ZM69.8722 18.6069C69.8722 17.6736 69.5572 16.8569 68.9272 16.1569C68.2972 15.4336 67.3056 15.0719 65.9522 15.0719H62.2072V22.4919H65.9522C67.3056 22.4919 68.2972 22.1303 68.9272 21.4069C69.5572 20.6603 69.8722 19.7269 69.8722 18.6069Z" fill="#060602"/>
<path d="M95.2934 30.8919V35.9669H80.3134H79.4035V10.0669H85.1434V30.8919H95.2934Z" fill="#060602"/>
<path d="M112.608 30.5069H104.243L102.388 35.9669H96.4725L105.713 10.0669H111.243L120.448 35.9669H114.428L112.608 30.5069ZM110.998 25.7469L108.443 18.2219L105.888 25.7469H110.998Z" fill="#060602"/>
<path d="M123.829 10.0669L129.254 20.3569L134.679 10.0669H140.839L132.019 25.9219V35.9669H126.314V25.9219L117.459 10.0669H123.829Z" fill="#060602"/>
<path d="M237.836 34.2472H243.18V26.5352H246.892C251.244 26.5352 254.22 23.8152 254.22 19.1112C254.22 14.7912 251.148 12.6472 246.892 12.6472H237.836V34.2472ZM245.676 16.5192C247.34 16.5192 248.844 17.2232 248.844 19.4312C248.844 21.7672 247.34 22.6632 245.676 22.6632H243.18V16.5192H245.676Z" fill="#060602"/>
<path d="M255.855 26.5672C255.855 32.2312 259.279 34.6312 263.663 34.6312C267.119 34.6312 270.415 33.0632 270.415 29.9912C270.415 29.7992 270.415 29.6072 270.383 29.4152L266.319 28.8712C266.351 28.9992 266.351 29.1272 266.351 29.2552C266.351 30.4392 265.231 31.1112 263.855 31.1112C262.287 31.1112 261.103 30.2472 261.039 26.9832H270.447C270.479 26.4072 270.543 25.8632 270.543 25.3192C270.543 21.0632 268.783 17.8952 263.567 17.8952C258.159 17.8952 255.855 21.9592 255.855 26.5672ZM263.567 20.8392C265.071 20.8392 265.423 22.4392 265.423 23.6552C265.423 23.8472 265.391 24.0392 265.391 24.1992H261.199C261.551 21.7992 262.479 20.8392 263.567 20.8392Z" fill="#060602"/>
<path d="M272.808 26.5672C272.808 32.2312 276.232 34.6312 280.616 34.6312C284.072 34.6312 287.368 33.0632 287.368 29.9912C287.368 29.7992 287.368 29.6072 287.336 29.4152L283.272 28.8712C283.304 28.9992 283.304 29.1272 283.304 29.2552C283.304 30.4392 282.184 31.1112 280.808 31.1112C279.24 31.1112 278.056 30.2472 277.992 26.9832H287.4C287.432 26.4072 287.496 25.8632 287.496 25.3192C287.496 21.0632 285.736 17.8952 280.52 17.8952C275.112 17.8952 272.808 21.9592 272.808 26.5672ZM280.52 20.8392C282.024 20.8392 282.376 22.4392 282.376 23.6552C282.376 23.8472 282.344 24.0392 282.344 24.1992H278.152C278.504 21.7992 279.432 20.8392 280.52 20.8392Z" fill="#060602"/>
<path d="M290.592 34.2472H295.744V29.0632L296.832 27.8152L300.32 34.2472H306.08L300.544 24.2312L305.888 18.2792H300.48L295.744 23.6232V11.3672H290.592V34.2472Z" fill="#060602"/>
<path d="M308.201 34.2472H313.353V23.9432C313.673 22.9832 314.121 22.0232 315.177 22.0232C316.489 22.0232 316.649 23.8152 316.105 25.3192L320.425 24.7112C321.609 21.7672 320.777 17.8952 317.161 17.8952C314.601 17.8952 313.321 19.7512 312.681 21.5432L312.009 18.2792H308.201V34.2472Z" fill="#060602"/>
<path d="M417.93 44.9125H426.246L430.47 33.2305H446.904L451.062 44.9125H459.972L444 1.08847H434.43L417.93 44.9125ZM432.912 26.3005L438.852 10.0645L444.594 26.3005H432.912Z" fill="#060602"/>
<path d="M464.53 44.9125H472.912V1.08847H464.53V44.9125Z" fill="#060602"/>
<path d="M498.408 45.7705C504.216 45.7705 508.638 43.2625 511.146 38.9065V44.9125H518.604V23.0665H500.322V29.9965H510.024C509.43 35.3425 504.942 38.5105 499.53 38.5105C491.808 38.5105 487.056 33.1645 487.056 24.0565V23.3965C487.056 13.4965 492.072 7.75447 499.464 7.75447C505.14 7.75447 508.704 10.1965 509.76 15.7405H518.472C516.888 5.57647 509.892 0.230469 499.53 0.230469C487.056 0.230469 478.476 9.27247 478.476 23.6605C478.476 37.1245 486.396 45.7705 498.408 45.7705Z" fill="#060602"/>
<path d="M533.296 13.9125H534.738L535.746 11.2105H539.386L540.352 13.9125H541.836L538.434 4.61647H536.796L533.296 13.9125ZM536.166 9.97847L537.58 6.14247L538.952 9.97847H536.166Z" fill="#060602"/>
<path d="M542.686 13.9125H544.058V10.5245C544.058 9.18047 544.38 8.59247 545.556 8.59247H546.186V7.24847H545.976C544.772 7.24847 544.254 7.75247 544.058 8.52247V7.30447H542.686V13.9125Z" fill="#060602"/>
<path d="M549.365 13.9125H550.541V12.7085H549.757C549.337 12.7085 549.169 12.5125 549.169 12.0925V8.48047H550.597V7.30447H549.169V5.19047L547.839 6.01647V7.30447H546.789V8.48047H547.839V12.2605C547.853 13.3105 548.161 13.8565 549.365 13.9125Z" fill="#060602"/>
<path d="M533.898 27.9125H535.298V18.6165H533.898V27.9125Z" fill="#060602"/>
<path d="M536.862 27.9125H538.234V24.7485C538.234 23.2365 538.822 22.3825 539.844 22.3825C540.74 22.3825 541.174 22.9285 541.174 23.9645V27.9125H542.56V23.8945C542.56 22.1305 541.692 21.1645 540.264 21.1645C539.256 21.1645 538.584 21.6685 538.234 22.5505V21.3045H536.862V27.9125Z" fill="#060602"/>
<path d="M543.903 27.9125H545.275V24.7485C545.275 23.2365 545.863 22.3825 546.885 22.3825C547.781 22.3825 548.215 22.9285 548.215 23.9645V27.9125H549.601V23.8945C549.601 22.1305 548.733 21.1645 547.305 21.1645C546.297 21.1645 545.625 21.6685 545.275 22.5505V21.3045H543.903V27.9125Z" fill="#060602"/>
<path d="M553.856 28.0245C555.802 28.0245 557.188 26.6105 557.188 24.6225C557.188 22.6065 555.83 21.1925 553.884 21.1925C551.938 21.1925 550.566 22.6065 550.566 24.6225C550.566 26.6385 551.91 28.0245 553.856 28.0245ZM553.856 26.8625C552.68 26.8625 551.952 26.0225 551.952 24.6645V24.6085C551.952 23.2225 552.708 22.3545 553.884 22.3545C555.06 22.3545 555.802 23.2225 555.802 24.6085V24.6645C555.802 26.0085 555.046 26.8625 553.856 26.8625Z" fill="#060602"/>
<path d="M559.781 27.9265H561.055L563.519 21.3045H562.077L560.411 26.2745L558.661 21.3045H557.233L559.781 27.9265Z" fill="#060602"/>
<path d="M565.837 28.0805C566.789 28.0805 567.615 27.7025 568.063 26.9185V27.9125H569.393L569.379 26.8905V23.6285C569.379 21.9485 568.371 21.1925 566.677 21.1925C564.927 21.1925 563.751 22.0885 563.709 23.5725H565.095V23.4885C565.151 22.7465 565.683 22.2985 566.663 22.2985C567.671 22.2985 568.077 22.7185 568.077 23.2645V23.3625C567.937 23.7265 567.251 23.7965 566.131 24.0345C564.661 24.3565 563.555 24.6925 563.555 26.1765C563.555 27.3105 564.423 28.0805 565.837 28.0805ZM566.089 27.0305C565.361 27.0305 564.955 26.6665 564.955 26.1205C564.955 25.4205 565.571 25.1825 566.327 24.9865C566.971 24.8325 567.671 24.7205 568.077 24.4405V25.2525C567.965 26.5405 567.055 27.0305 566.089 27.0305Z" fill="#060602"/>
<path d="M572.703 27.9125H573.879V26.7085H573.095C572.675 26.7085 572.507 26.5125 572.507 26.0925V22.4805H573.935V21.3045H572.507V19.1905L571.177 20.0165V21.3045H570.127V22.4805H571.177V26.2605C571.191 27.3105 571.499 27.8565 572.703 27.9125Z" fill="#060602"/>
<path d="M574.978 20.2405H576.462V18.7845H574.978V20.2405ZM575.02 27.9125H576.406V21.3045H575.02V27.9125Z" fill="#060602"/>
<path d="M579.714 27.9265H580.988L583.452 21.3045H582.01L580.344 26.2745L578.594 21.3045H577.166L579.714 27.9265Z" fill="#060602"/>
<path d="M586.764 28.0245C588.458 28.0245 589.396 27.2125 589.844 26.1905L588.626 25.7145C588.374 26.3585 587.884 26.9045 586.764 26.9045C585.644 26.9045 584.93 26.2185 584.846 25.0845H589.816V24.5805C589.816 22.4945 588.654 21.1925 586.708 21.1925C584.832 21.1925 583.474 22.6065 583.474 24.6505C583.474 26.6805 584.734 28.0245 586.764 28.0245ZM584.818 24.0485C584.958 22.9705 585.686 22.3125 586.68 22.3125C587.716 22.3125 588.346 22.9145 588.402 24.0485H584.818Z" fill="#060602"/>
<path d="M537.734 42.0805C539.036 42.0805 540.03 41.5065 540.562 40.4985V41.9125H541.808V37.4045H538.056V38.6225H540.352C540.282 39.9385 539.232 40.8205 537.86 40.8205C536.068 40.8205 534.948 39.5465 534.948 37.4325V37.3065C534.948 35.0665 536.124 33.7365 537.86 33.7365C539.204 33.7365 540.058 34.3105 540.31 35.6825L541.794 35.6685C541.444 33.5265 540.016 32.4485 537.874 32.4485C535.284 32.4485 533.506 34.3525 533.506 37.3765C533.506 40.2605 535.172 42.0805 537.734 42.0805Z" fill="#060602"/>
<path d="M545.193 42.0805C546.145 42.0805 546.971 41.7025 547.419 40.9185V41.9125H548.749L548.735 40.8905V37.6285C548.735 35.9485 547.727 35.1925 546.033 35.1925C544.283 35.1925 543.107 36.0885 543.065 37.5725H544.451V37.4885C544.507 36.7465 545.039 36.2985 546.019 36.2985C547.027 36.2985 547.433 36.7185 547.433 37.2645V37.3625C547.293 37.7265 546.607 37.7965 545.487 38.0345C544.017 38.3565 542.911 38.6925 542.911 40.1765C542.911 41.3105 543.779 42.0805 545.193 42.0805ZM545.445 41.0305C544.717 41.0305 544.311 40.6665 544.311 40.1205C544.311 39.4205 544.927 39.1825 545.683 38.9865C546.327 38.8325 547.027 38.7205 547.433 38.4405V39.2525C547.321 40.5405 546.411 41.0305 545.445 41.0305Z" fill="#060602"/>
<path d="M550.11 41.9125H551.496V32.4765H550.11V41.9125Z" fill="#060602"/>
<path d="M552.954 41.9125H554.34V32.4765H552.954V41.9125Z" fill="#060602"/>
<path d="M558.71 42.0245C560.404 42.0245 561.342 41.2125 561.79 40.1905L560.572 39.7145C560.32 40.3585 559.83 40.9045 558.71 40.9045C557.59 40.9045 556.876 40.2185 556.792 39.0845H561.762V38.5805C561.762 36.4945 560.6 35.1925 558.654 35.1925C556.778 35.1925 555.42 36.6065 555.42 38.6505C555.42 40.6805 556.68 42.0245 558.71 42.0245ZM556.764 38.0485C556.904 36.9705 557.632 36.3125 558.626 36.3125C559.662 36.3125 560.292 36.9145 560.348 38.0485H556.764Z" fill="#060602"/>
<path d="M562.866 41.9125H564.238V38.5245C564.238 37.1805 564.56 36.5925 565.736 36.5925H566.366V35.2485H566.156C564.952 35.2485 564.434 35.7525 564.238 36.5225V35.3045H562.866V41.9125Z" fill="#060602"/>
<path d="M567.095 44.5725H567.795C569.377 44.5725 569.951 43.9565 570.553 42.3885L573.087 35.3045H571.631L570.021 40.2325L568.257 35.3045H566.815L569.363 41.7865C568.845 43.1305 568.635 43.3265 567.725 43.3265H567.095V44.5725Z" fill="#060602"/>
<path d="M694.27 34.7292H695.841V45.6619H692.351L688.415 35.7878V45.6619H686.844V34.7292H690.35L694.27 44.5868V34.7292Z" fill="#060602"/>
<path d="M704.423 40.7331V45.6619H702.356V44.8349C702.014 45.0775 701.617 45.3146 701.165 45.5461C700.713 45.7777 700.294 45.8935 699.908 45.8935C699.401 45.8935 698.932 45.6674 698.502 45.2154C698.072 44.7633 697.758 44.2616 697.559 43.7102C697.361 43.1479 697.328 42.6848 697.46 42.3209C697.593 42.0342 697.857 41.8027 698.254 41.6263C698.662 41.4388 699.136 41.2569 699.677 41.0804C700.57 40.8158 701.452 40.4354 702.323 39.9392C702.301 39.5533 702.24 39.2611 702.141 39.0626C702.042 38.8531 701.898 38.6822 701.711 38.5499C701.457 38.3845 701.088 38.4121 700.603 38.6326C700.118 38.8421 699.594 39.1784 699.032 39.6415L698.238 37.8221C699.065 37.5465 699.781 37.4307 700.388 37.4748C700.994 37.5189 701.551 37.6402 702.058 37.8387C702.731 38.0592 703.288 38.401 703.729 38.8641C704.17 39.3162 704.401 39.9392 704.423 40.7331ZM699.544 43.2802C699.588 43.6661 699.836 43.9804 700.289 44.223C700.752 44.4656 701.441 44.4049 702.356 44.041L702.323 40.7C702.323 40.7 702.24 40.7441 702.075 40.8324C701.909 40.9095 701.705 41.0088 701.463 41.1301C701.231 41.2403 700.994 41.3506 700.752 41.4609C700.509 41.5711 700.3 41.6648 700.123 41.742C699.792 41.8964 699.599 42.1059 699.544 42.3705C699.5 42.6241 699.5 42.9274 699.544 43.2802Z" fill="#060602"/>
<path d="M708.513 42.0397C708.513 42.7675 708.601 43.3739 708.777 43.8591C708.965 44.3443 709.284 44.6861 709.737 44.8846C710.2 45.083 710.845 45.1106 711.672 44.9673L711.705 45.1327C711.705 45.1327 711.622 45.1988 711.457 45.3311C711.291 45.4524 711.049 45.5792 710.729 45.7115C710.409 45.8439 710.012 45.91 709.538 45.91C708.689 45.91 708.038 45.7281 707.586 45.3642C707.145 44.9893 706.842 44.5097 706.677 43.9253C706.522 43.3298 706.445 42.7013 706.445 42.0397V39.1453H705.37L708.513 36.2178V38.4176H710.861L710.547 39.1453H708.513V42.0397Z" fill="#060602"/>
<path d="M716.895 44.5041V37.5575L718.962 37.2598V45.6619H716.895V44.9838C716.387 45.5572 715.715 45.8604 714.877 45.8935C713.995 45.9596 713.361 45.7667 712.975 45.3146C712.6 44.8625 712.412 44.2395 712.412 43.4456V37.5575L714.48 37.2598V43.1479C714.48 43.7654 714.535 44.2285 714.645 44.5372C714.766 44.8349 715.053 45.0058 715.505 45.05C716.035 45.083 716.498 44.9011 716.895 44.5041Z" fill="#060602"/>
<path d="M723.783 38.4176C724.798 37.2047 726.049 37.0117 727.538 37.8387L726.231 39.2115C726.044 38.9138 725.774 38.7153 725.421 38.616C725.068 38.5168 724.748 38.5664 724.461 38.7649C724.219 38.9523 724.042 39.1949 723.932 39.4926C723.833 39.7904 723.783 40.2094 723.783 40.7497V45.6619H721.716V37.5575L723.783 37.2598V38.4176Z" fill="#060602"/>
<path d="M731.185 44.438C731.538 44.5262 731.985 44.5924 732.525 44.6365C733.076 44.6695 733.584 44.6475 734.047 44.5703L734.08 44.7192C733.661 45.1161 733.253 45.3973 732.856 45.5627C732.459 45.7281 731.902 45.8108 731.185 45.8108C729.851 45.8108 728.908 45.4579 728.357 44.7522C727.817 44.0355 727.547 42.9549 727.547 41.5105C727.547 40.077 727.817 39.002 728.357 38.2852C728.908 37.5685 729.851 37.2102 731.185 37.2102C732.619 37.2102 733.6 37.6182 734.129 38.4341L729.515 42.8667C729.614 43.1644 729.735 43.4125 729.879 43.611C730.254 44.0521 730.689 44.3277 731.185 44.438ZM729.449 38.5333C729.239 38.7318 729.129 39.1508 729.118 39.7904C729.118 40.4189 729.162 41.0088 729.25 41.5601C729.272 41.7696 729.3 41.9626 729.333 42.139L732.277 39.1618C731.946 38.8862 731.582 38.6932 731.185 38.583C730.855 38.4837 730.524 38.4231 730.193 38.401C729.873 38.3679 729.625 38.4121 729.449 38.5333Z" fill="#060602"/>
<path d="M750.438 34.7458V45.6619H748.866V35.8208L746.055 45.6619H743.656L740.845 35.7878V45.6619H739.257V34.7127H742.879L745.294 43.2141L747.725 34.7458H750.438Z" fill="#060602"/>
<path d="M756.028 37.359C757.373 37.359 758.316 37.7174 758.856 38.4341C759.407 39.1398 759.683 40.2094 759.683 41.6428C759.683 43.0873 759.407 44.1678 758.856 44.8846C758.316 45.5902 757.373 45.9431 756.028 45.9431C754.682 45.9431 753.734 45.5902 753.183 44.8846C752.642 44.1678 752.372 43.0873 752.372 41.6428C752.372 40.2094 752.642 39.1398 753.183 38.4341C753.734 37.7174 754.682 37.359 756.028 37.359ZM757.764 44.6365C757.963 44.427 758.067 44.008 758.078 43.3795C758.09 42.7509 758.051 42.161 757.963 41.6097C757.841 40.6173 757.626 39.9282 757.318 39.5423C756.954 39.1122 756.524 38.8421 756.028 38.7318C755.686 38.6326 755.355 38.5664 755.035 38.5333C754.715 38.5003 754.467 38.5444 754.291 38.6657C754.081 38.8641 753.971 39.2831 753.96 39.9227C753.96 40.5512 753.999 41.1411 754.076 41.6924C754.197 42.6848 754.412 43.3739 754.721 43.7599C755.096 44.1899 755.531 44.46 756.028 44.5703C756.358 44.6695 756.684 44.7357 757.003 44.7688C757.323 44.7908 757.577 44.7467 757.764 44.6365Z" fill="#060602"/>
<path d="M763.485 38.4176C764.499 37.2047 765.751 37.0117 767.239 37.8387L765.933 39.2115C765.745 38.9138 765.475 38.7153 765.122 38.616C764.769 38.5168 764.45 38.5664 764.163 38.7649C763.92 38.9523 763.744 39.1949 763.634 39.4926C763.534 39.7904 763.485 40.2094 763.485 40.7497V45.6619H761.417V37.5575L763.485 37.2598V38.4176Z" fill="#060602"/>
<path d="M770.585 42.0397C770.585 42.7675 770.673 43.3739 770.849 43.8591C771.037 44.3443 771.356 44.6861 771.809 44.8846C772.272 45.083 772.917 45.1106 773.744 44.9673L773.777 45.1327C773.777 45.1327 773.694 45.1988 773.529 45.3311C773.363 45.4524 773.121 45.5792 772.801 45.7115C772.481 45.8439 772.084 45.91 771.61 45.91C770.761 45.91 770.11 45.7281 769.658 45.3642C769.217 44.9893 768.914 44.5097 768.749 43.9253C768.594 43.3298 768.517 42.7013 768.517 42.0397V39.1453H767.442L770.585 36.2178V38.4176H772.933L772.619 39.1453H770.585V42.0397Z" fill="#060602"/>
<path d="M777.622 44.438C777.975 44.5262 778.422 44.5924 778.962 44.6365C779.513 44.6695 780.021 44.6475 780.484 44.5703L780.517 44.7192C780.098 45.1161 779.69 45.3973 779.293 45.5627C778.896 45.7281 778.339 45.8108 777.622 45.8108C776.288 45.8108 775.345 45.4579 774.794 44.7522C774.254 44.0355 773.984 42.9549 773.984 41.5105C773.984 40.077 774.254 39.002 774.794 38.2852C775.345 37.5685 776.288 37.2102 777.622 37.2102C779.056 37.2102 780.037 37.6182 780.566 38.4341L775.952 42.8667C776.051 43.1644 776.172 43.4125 776.316 43.611C776.691 44.0521 777.126 44.3277 777.622 44.438ZM775.886 38.5333C775.676 38.7318 775.566 39.1508 775.555 39.7904C775.555 40.4189 775.599 41.0088 775.687 41.5601C775.709 41.7696 775.737 41.9626 775.77 42.139L778.714 39.1618C778.383 38.8862 778.019 38.6932 777.622 38.583C777.292 38.4837 776.961 38.4231 776.63 38.401C776.31 38.3679 776.062 38.4121 775.886 38.5333Z" fill="#060602"/>
<path d="M733.766 0.0585938C732.727 0.0585937 731.999 0.341077 731.582 0.906043C731.157 1.46232 730.944 2.30542 730.944 3.43535C730.944 4.57398 731.157 5.42577 731.582 5.99074C731.999 6.54702 732.727 6.82515 733.766 6.82515C734.805 6.82515 735.537 6.54701 735.963 5.99074C736.38 5.42577 736.589 4.57398 736.589 3.43535C736.589 2.30542 736.38 1.46232 735.963 0.906044C735.537 0.341077 734.805 0.0585938 733.766 0.0585938Z" fill="#060602"/>
<path d="M733.757 13.341C733.771 13.342 733.786 13.343 733.8 13.344C733.8 13.342 733.8 13.3399 733.8 13.3378C741.027 12.7974 741 6.44374 741 6.44374C738.892 6.2921 734.556 7.40732 733.757 13.0019C732.957 7.40732 728.622 6.2921 726.514 6.44374C726.514 6.44374 726.486 12.7974 733.714 13.3378C733.713 13.3399 733.713 13.342 733.713 13.344C733.728 13.343 733.742 13.342 733.757 13.341Z" fill="#060602"/>
<path d="M720.742 23.4656C721.261 24.384 721.865 24.8863 722.552 24.9727C723.237 25.0709 724.059 24.8375 725.017 24.2725C725.983 23.7032 726.6 23.0892 726.866 22.4303C727.129 21.7833 727.001 21.0007 726.482 20.0823C725.962 19.164 725.36 18.6557 724.676 18.5575C723.988 18.4712 723.161 18.7126 722.195 19.2819C721.236 19.8469 720.626 20.4529 720.362 21.0999C720.096 21.7587 720.222 22.5473 720.742 23.4656Z" fill="#060602"/>
<path d="M732.014 16.8328C732.008 16.8194 732.001 16.806 731.995 16.7925C731.993 16.7938 731.991 16.795 731.99 16.7963C727.918 10.6765 722.541 13.8778 722.541 13.8778C723.467 15.8175 726.581 19.093 731.726 17.0023C727.38 20.5062 728.602 24.8969 729.785 26.685C729.785 26.685 735.188 23.5326 732.033 16.8724C732.035 16.8716 732.037 16.8708 732.039 16.87C732.03 16.8575 732.022 16.8451 732.014 16.8328Z" fill="#060602"/>
<path d="M746.837 23.4656C746.318 24.384 745.715 24.8863 745.027 24.9727C744.342 25.0709 743.52 24.8375 742.562 24.2725C741.596 23.7032 740.98 23.0892 740.713 22.4303C740.45 21.7833 740.578 21.0007 741.097 20.0823C741.617 19.164 742.219 18.6557 742.903 18.5575C743.591 18.4712 744.418 18.7126 745.384 19.2819C746.343 19.8469 746.954 20.4529 747.217 21.0999C747.483 21.7587 747.357 22.5473 746.837 23.4656Z" fill="#060602"/>
<path d="M735.565 16.8328C735.572 16.8194 735.578 16.806 735.584 16.7925C735.586 16.7938 735.588 16.795 735.589 16.7963C739.662 10.6765 745.038 13.8778 745.038 13.8778C744.112 15.8175 740.998 19.093 735.853 17.0023C740.199 20.5062 738.977 24.8969 737.795 26.685C737.795 26.685 732.391 23.5326 735.546 16.8724C735.544 16.8716 735.543 16.8708 735.541 16.87C735.549 16.8575 735.557 16.8451 735.565 16.8328Z" fill="#060602"/>
<path d="M893.631 22.9997L877.57 3.47266V22.9997L893.631 42.5267V22.9997Z" fill="#060602"/>
<path d="M909.694 22.9997L893.633 3.47266V22.9997L909.694 42.5267V22.9997Z" fill="#060602"/>
<path d="M1019.37 9.61194C1021.26 9.58861 1022.98 9.91527 1024.55 10.5919C1026.11 11.2453 1027.45 12.1786 1028.57 13.3919C1029.69 14.5819 1030.55 16.0053 1031.16 17.6619C1031.79 19.2953 1032.09 21.0686 1032.07 22.9819C1032.09 24.8953 1031.79 26.6803 1031.16 28.3369C1030.55 29.9703 1029.68 31.3936 1028.54 32.6069C1027.42 33.8203 1026.07 34.7653 1024.51 35.4419C1022.95 36.1186 1021.22 36.4336 1019.33 36.3869C1017.46 36.4103 1015.75 36.0953 1014.19 35.4419C1012.65 34.7653 1011.32 33.8319 1010.2 32.6419C1009.08 31.4286 1008.2 30.0053 1007.57 28.3719C1006.96 26.7153 1006.67 24.9303 1006.7 23.0169C1006.67 21.1036 1006.96 19.3303 1007.57 17.6969C1008.2 16.0403 1009.08 14.6053 1010.2 13.3919C1011.32 12.1786 1012.66 11.2336 1014.22 10.5569C1015.78 9.88027 1017.5 9.56527 1019.37 9.61194ZM1019.4 30.8569C1021.5 30.8569 1023.13 30.1686 1024.3 28.7919C1025.49 27.3919 1026.09 25.4553 1026.09 22.9819C1026.09 20.5086 1025.49 18.5836 1024.3 17.2069C1023.13 15.8069 1021.5 15.1069 1019.4 15.1069C1017.28 15.1069 1015.62 15.8069 1014.43 17.2069C1013.26 18.5836 1012.68 20.5086 1012.68 22.9819C1012.68 25.4553 1013.26 27.3919 1014.43 28.7919C1015.62 30.1686 1017.28 30.8569 1019.4 30.8569Z" fill="#060602"/>
<path d="M1057.94 10.0669V35.9669H1052.34L1041.42 19.0619V35.9669H1035.82V10.0669H1041.42L1052.34 27.0069V10.0669H1057.94Z" fill="#060602"/>
<path d="M1082.55 18.7119C1082.55 19.9953 1082.35 21.1736 1081.96 22.2469C1081.56 23.3203 1080.98 24.2419 1080.21 25.0119C1079.46 25.7586 1078.54 26.3419 1077.44 26.7619C1076.35 27.1819 1075.1 27.3919 1073.7 27.3919H1068.9V35.9669H1063.23V10.0669H1068.9H1073.77C1075.14 10.0669 1076.37 10.2653 1077.44 10.6619C1078.54 11.0586 1079.46 11.6419 1080.21 12.4119C1080.95 13.1586 1081.53 14.0686 1081.92 15.1419C1082.34 16.1919 1082.55 17.3819 1082.55 18.7119ZM1076.57 18.6069C1076.57 17.6736 1076.25 16.8569 1075.62 16.1569C1074.99 15.4336 1074 15.0719 1072.65 15.0719H1068.9V22.4919H1072.65C1074 22.4919 1074.99 22.1303 1075.62 21.4069C1076.25 20.6603 1076.57 19.7269 1076.57 18.6069Z" fill="#060602"/>
<path d="M1101.99 30.8919V35.9669H1087.01H1086.1V10.0669H1091.84V30.8919H1101.99Z" fill="#060602"/>
<path d="M1119.3 30.5069H1110.94L1109.08 35.9669H1103.17L1112.41 10.0669H1117.94L1127.14 35.9669H1121.12L1119.3 30.5069ZM1117.69 25.7469L1115.14 18.2219L1112.58 25.7469H1117.69Z" fill="#060602"/>
<path d="M1130.52 10.0669L1135.95 20.3569L1141.37 10.0669H1147.53L1138.71 25.9219V35.9669H1133.01V25.9219L1124.15 10.0669H1130.52Z" fill="#060602"/>
</g>
<defs>
<clipPath id="clip0_3996_11529">
<rect width="1007" height="46" fill="white"/>
</clipPath>
</defs>
</svg>
